<svg id="kity_svg_6" xmlns="http://www.w3.org/2000/svg" xmlns:xlink="http://www.w3.org/1999/xlink" version="1.1" width="911" height="619" style="background: rgb(251, 251, 251); visibility: visible;" viewBox="0 0 911 619"><defs id="kity_defs_7"><linearGradient id="kity_linearGradient_17" x1="0" y1="0" x2="0" y2="1"><stop id="kity_stop_18" offset="0" stop-color="rgb(255, 255, 255)"></stop><stop id="kity_stop_19" offset="1" stop-color="rgb(204, 204, 204)"></stop></linearGradient><marker id="kity_marker_2" orient="auto" refX="6" refY="0" viewBox="-7 -7 14 14" markerWidth="7" markerHeight="7" markerUnits="userSpaceOnUse"><path id="kity_path_3" fill="rgb(115, 161, 191)" stroke="none" d="M6,0A6,6,0,1,1,-6,0A6,6,0,1,1,6,0"></path></marker></defs><g id="kity_g_8"><g id="minder1" text-rendering="optimize-speed"><g id="minder_connect_group1"><path id="kity_path_31" fill="none" stroke="rgb(115, 161, 191)" stroke-width="1" d="M140.5,387.5A238,199,0,0,1,378.5,188.5"></path><path id="kity_path_33" fill="none" stroke="rgb(115, 161, 191)" stroke-width="1" d="M492.5,188.5C512.5,188.5,512.5,83.5,532.5,83.5"></path><path id="kity_path_35" fill="none" stroke="rgb(115, 161, 191)" stroke-width="1" d="M650.5,83.5C670.5,83.5,670.5,31.5,690.5,31.5"></path><path id="kity_path_37" fill="none" stroke="rgb(115, 161, 191)" stroke-width="1" d="M650.5,83.5C670.5,83.5,670.5,83.5,690.5,83.5"></path><path id="kity_path_39" fill="none" stroke="rgb(115, 161, 191)" stroke-width="1" d="M650.5,83.5C670.5,83.5,670.5,135.5,690.5,135.5"></path><path id="kity_path_41" fill="none" stroke="rgb(115, 161, 191)" stroke-width="1" d="M492.5,188.5C512.5,188.5,512.5,187.5,532.5,187.5"></path><path id="kity_path_43" fill="none" stroke="rgb(115, 161, 191)" stroke-width="1" d="M492.5,188.5C512.5,188.5,512.5,291,532.5,291"></path><path id="kity_path_45" fill="none" stroke="rgb(115, 161, 191)" stroke-width="1" d="M623.5,291.5C643.5,291,643.5,239.5,663.5,239.5"></path><path id="kity_path_47" fill="none" stroke="rgb(115, 161, 191)" stroke-width="1" d="M623.5,291.5C643.5,291,643.5,291.5,663.5,291.5"></path><path id="kity_path_49" fill="none" stroke="rgb(115, 161, 191)" stroke-width="1" d="M623.5,291.5C643.5,291,643.5,343.5,663.5,343.5"></path><path id="kity_path_51" fill="none" stroke="rgb(115, 161, 191)" stroke-width="1" d="M140.5,387.5A238,43,0,0,0,378.5,430.5"></path><path id="kity_path_53" fill="none" stroke="rgb(115, 161, 191)" stroke-width="1" d="M478.5,430.5C498.5,430.5,498.5,404.5,518.5,404.5"></path><path id="kity_path_55" fill="none" stroke="rgb(115, 161, 191)" stroke-width="1" d="M478.5,430.5C498.5,430.5,498.5,456.5,518.5,456.5"></path><path id="kity_path_57" fill="none" stroke="rgb(115, 161, 191)" stroke-width="1" d="M140.5,387.5A238,133,0,0,0,378.5,520.5"></path><path id="kity_path_59" fill="none" stroke="rgb(115, 161, 191)" stroke-width="1" d="M478.5,520.5C498.5,520.5,498.5,520.5,518.5,520.5"></path><path id="kity_path_61" fill="none" stroke="rgb(115, 161, 191)" stroke-width="1" d="M140.5,387.5A238,199,0,0,0,378.5,586.5"></path><path id="kity_path_63" fill="none" stroke="rgb(115, 161, 191)" stroke-width="1" d="M519.5,586.5C539.5,586.5,539.5,586.5,559.5,586.5"></path></g><g id="minder_node1"><path id="node_outline1" fill="rgb(115, 161, 191)" stroke="rgb(115, 161, 191)" d="M25.5,367.5h230a5,5,0,0,1,5,5v30a5,5,0,0,1,-5,5h-230a5,5,0,0,1,-5,-5v-30a5,5,0,0,1,5,-5z" stroke-width="3"></path><g id="node_text1" fill="white"><text id="kity_text_22" text-rendering="inherit" font-size="16" dy=".8em" y="377.09999990463257" x="44.5">单片机程序是怎么组成的？</text></g></g><g id="kity_g_12"><path id="kity_path_13" fill="none" stroke="none" d="M44.5,387.5h0v0h0z"></path></g><g id="kity_g_14"><path id="kity_path_15" fill="none" stroke="none" d="M44.5,387.5h0v0h0z"></path><path id="kity_path_16" fill="none" stroke="none"></path></g><g id="minder_node2"><g id="node_expander10" style="cursor: pointer;"><path id="kity_path_146" fill="white" stroke="gray" d="M379.5,188.5A6,6,0,1,1,367.5,188.5A6,6,0,1,1,379.5,188.5"></path><path id="kity_path_147" fill="none" stroke="gray" d="M369,188.5L378,188.5"></path></g><path id="node_outline11" fill="rgb(238, 243, 246)" stroke="rgb(115, 161, 191)" d="M383.5,175.5h106a3,3,0,0,1,3,3v20a3,3,0,0,1,-3,3h-106a3,3,0,0,1,-3,-3v-20a3,3,0,0,1,3,-3z" stroke-width="1"></path><g id="node_text11" fill="black"><text id="kity_text_83" text-rendering="inherit" font-size="14" dy=".8em" y="179.40000009536743" x="400.5">源代码阶段</text></g></g><g id="minder_node3"><g id="node_expander4" style="cursor: pointer;"><path id="kity_path_128" fill="white" stroke="gray" d="M532.5,83.5A6,6,0,1,1,520.5,83.5A6,6,0,1,1,532.5,83.5"></path><path id="kity_path_129" fill="none" stroke="gray" d="M522,83.5L531,83.5"></path></g><path id="node_outline5" fill="none" stroke="none" d="M537.5,72.5h108a5,5,0,0,1,5,5v12a5,5,0,0,1,-5,5h-108a5,5,0,0,1,-5,-5v-12a5,5,0,0,1,5,-5z"></path><g id="node_text5" fill="black"><text id="kity_text_71" text-rendering="inherit" font-size="12" dy=".8em" y="75.70000004768372" x="542.5">源文件之启动文件</text></g></g><g id="minder_node4"><g id="node_expander1" display="none" style="cursor: pointer;"><path id="kity_path_119" fill="white" stroke="gray" d="M690.5,31.5A6,6,0,1,1,678.5,31.5A6,6,0,1,1,690.5,31.5"></path><path id="kity_path_120" fill="none" stroke="gray"></path></g><path id="node_outline2" fill="none" stroke="none" d="M695.5,20.5h189a5,5,0,0,1,5,5v12a5,5,0,0,1,-5,5h-189a5,5,0,0,1,-5,-5v-12a5,5,0,0,1,5,-5z"></path><g id="node_text2" fill="black"><text id="kity_text_65" text-rendering="inherit" font-size="12" dy=".8em" y="23.700000047683716" x="700.5">从 flash 初始化可读写静态变量区</text></g></g><g id="minder_node5"><g id="node_expander2" display="none" style="cursor: pointer;"><path id="kity_path_122" fill="white" stroke="gray" d="M690.5,83.5A6,6,0,1,1,678.5,83.5A6,6,0,1,1,690.5,83.5"></path><path id="kity_path_123" fill="none" stroke="gray"></path></g><path id="node_outline3" fill="none" stroke="none" d="M695.5,72.5h191a5,5,0,0,1,5,5v12a5,5,0,0,1,-5,5h-191a5,5,0,0,1,-5,-5v-12a5,5,0,0,1,5,-5z"></path><g id="node_text3" fill="black"><text id="kity_text_67" text-rendering="inherit" font-size="12" dy=".8em" y="75.70000004768372" x="700.5">初始化没有被初始化赋值的变量区</text></g></g><g id="minder_node6"><g id="node_expander3" display="none" style="cursor: pointer;"><path id="kity_path_125" fill="white" stroke="gray" d="M690.5,135.5A6,6,0,1,1,678.5,135.5A6,6,0,1,1,690.5,135.5"></path><path id="kity_path_126" fill="none" stroke="gray"></path></g><path id="node_outline4" fill="none" stroke="none" d="M695.5,124.5h71a5,5,0,0,1,5,5v12a5,5,0,0,1,-5,5h-71a5,5,0,0,1,-5,-5v-12a5,5,0,0,1,5,-5z"></path><g id="node_text4" fill="black"><text id="kity_text_69" text-rendering="inherit" font-size="12" dy=".8em" y="127.70000004768372" x="700.5">中断向量表</text></g></g><g id="minder_node7"><g id="node_expander5" display="none" style="cursor: pointer;"><path id="kity_path_131" fill="white" stroke="gray" d="M532.5,187.5A6,6,0,1,1,520.5,187.5A6,6,0,1,1,532.5,187.5"></path><path id="kity_path_132" fill="none" stroke="gray"></path></g><path id="node_outline6" fill="none" stroke="none" d="M537.5,176.5h95a5,5,0,0,1,5,5v12a5,5,0,0,1,-5,5h-95a5,5,0,0,1,-5,-5v-12a5,5,0,0,1,5,-5z"></path><g id="node_text6" fill="black"><text id="kity_text_73" text-rendering="inherit" font-size="12" dy=".8em" y="179.70000004768372" x="542.5">源文件之源代码</text></g></g><g id="minder_node8"><g id="node_expander9" style="cursor: pointer;"><path id="kity_path_143" fill="white" stroke="gray" d="M532.5,291A6,6,0,1,1,520.5,291A6,6,0,1,1,532.5,291"></path><path id="kity_path_144" fill="none" stroke="gray" d="M522,291L531,291"></path></g><path id="node_outline10" fill="none" stroke="rgb(57, 80, 96)" d="M537.5,277.5h81a5,5,0,0,1,5,5v17a5,5,0,0,1,-5,5h-81a5,5,0,0,1,-5,-5v-17a5,5,0,0,1,5,-5z" stroke-width="3"></path><g id="node_text10" fill="black"><text id="kity_text_81" text-rendering="inherit" font-size="12" dy=".8em" y="282.7000000476837" x="542.5">链接脚本</text></g><g id="kity_g_98" style="cursor: pointer;"><path id="kity_path_99" fill="none" stroke="none" d="M600,282h12a2,2,0,0,1,2,2v13a2,2,0,0,1,-2,2h-12a2,2,0,0,1,-2,-2v-13a2,2,0,0,1,2,-2z"></path><path id="kity_path_100" fill="black" stroke="none" d="M609,293H603V292h6L609,293L609,293zM609,291H603V290h6V291zM609,289H603V288h6V289zM608.5,295H602V286h8v7.5M609,296l2,-2V285H601v11"></path></g></g><g id="minder_node9"><g id="node_expander6" display="none" style="cursor: pointer;"><path id="kity_path_134" fill="white" stroke="gray" d="M663.5,239.5A6,6,0,1,1,651.5,239.5A6,6,0,1,1,663.5,239.5"></path><path id="kity_path_135" fill="none" stroke="gray"></path></g><path id="node_outline7" fill="none" stroke="none" d="M668.5,228.5h96a5,5,0,0,1,5,5v12a5,5,0,0,1,-5,5h-96a5,5,0,0,1,-5,-5v-12a5,5,0,0,1,5,-5z"></path><g id="node_text7" fill="black"><text id="kity_text_75" text-rendering="inherit" font-size="12" dy=".8em" y="231.70000004768372" x="673.5">定义入口点符号</text></g></g><g id="minder_node10"><g id="node_expander7" display="none" style="cursor: pointer;"><path id="kity_path_137" fill="white" stroke="gray" d="M663.5,291.5A6,6,0,1,1,651.5,291.5A6,6,0,1,1,663.5,291.5"></path><path id="kity_path_138" fill="none" stroke="gray"></path></g><path id="node_outline8" fill="none" stroke="none" d="M668.5,280.5h83a5,5,0,0,1,5,5v12a5,5,0,0,1,-5,5h-83a5,5,0,0,1,-5,-5v-12a5,5,0,0,1,5,-5z"></path><g id="node_text8" fill="black"><text id="kity_text_77" text-rendering="inherit" font-size="12" dy=".8em" y="283.7000000476837" x="673.5">定义内存分区</text></g></g><g id="minder_node11"><g id="node_expander8" display="none" style="cursor: pointer;"><path id="kity_path_140" fill="white" stroke="gray" d="M663.5,343.5A6,6,0,1,1,651.5,343.5A6,6,0,1,1,663.5,343.5"></path><path id="kity_path_141" fill="none" stroke="gray"></path></g><path id="node_outline9" fill="none" stroke="none" d="M668.5,332.5h48a5,5,0,0,1,5,5v12a5,5,0,0,1,-5,5h-48a5,5,0,0,1,-5,-5v-12a5,5,0,0,1,5,-5z"></path><g id="node_text9" fill="black"><text id="kity_text_79" text-rendering="inherit" font-size="12" dy=".8em" y="335.7000000476837" x="673.5">定义段</text></g></g><g id="minder_node12"><g id="node_expander13" style="cursor: pointer;"><path id="kity_path_155" fill="white" stroke="gray" d="M379.5,430.5A6,6,0,1,1,367.5,430.5A6,6,0,1,1,379.5,430.5"></path><path id="kity_path_156" fill="none" stroke="gray" d="M369,430.5L378,430.5"></path></g><path id="node_outline14" fill="rgb(238, 243, 246)" stroke="rgb(115, 161, 191)" d="M383.5,417.5h92a3,3,0,0,1,3,3v20a3,3,0,0,1,-3,3h-92a3,3,0,0,1,-3,-3v-20a3,3,0,0,1,3,-3z" stroke-width="1"></path><g id="node_text14" fill="black"><text id="kity_text_89" text-rendering="inherit" font-size="14" dy=".8em" y="421.40000009536743" x="400.5">编译阶段</text></g></g><g id="minder_node13"><g id="node_expander11" display="none" style="cursor: pointer;"><path id="kity_path_149" fill="white" stroke="gray" d="M518.5,404.5A6,6,0,1,1,506.5,404.5A6,6,0,1,1,518.5,404.5"></path><path id="kity_path_150" fill="none" stroke="gray"></path></g><path id="node_outline12" fill="none" stroke="none" d="M523.5,393.5h234a5,5,0,0,1,5,5v12a5,5,0,0,1,-5,5h-234a5,5,0,0,1,-5,-5v-12a5,5,0,0,1,5,-5z"></path><g id="node_text12" fill="black"><text id="kity_text_85" text-rendering="inherit" font-size="12" dy=".8em" y="396.7000000476837" x="528.5">可重定向 object （每个源文件编译生成）</text></g></g><g id="minder_node14"><g id="node_expander12" display="none" style="cursor: pointer;"><path id="kity_path_152" fill="white" stroke="gray" d="M518.5,456.5A6,6,0,1,1,506.5,456.5A6,6,0,1,1,518.5,456.5"></path><path id="kity_path_153" fill="none" stroke="gray"></path></g><path id="node_outline13" fill="none" stroke="none" d="M523.5,445.5h60a5,5,0,0,1,5,5v12a5,5,0,0,1,-5,5h-60a5,5,0,0,1,-5,-5v-12a5,5,0,0,1,5,-5z"></path><g id="node_text13" fill="black"><text id="kity_text_87" text-rendering="inherit" font-size="12" dy=".8em" y="448.7000000476837" x="528.5">链接脚本</text></g></g><g id="minder_node15"><g id="node_expander15" style="cursor: pointer;"><path id="kity_path_161" fill="white" stroke="gray" d="M379.5,520.5A6,6,0,1,1,367.5,520.5A6,6,0,1,1,379.5,520.5"></path><path id="kity_path_162" fill="none" stroke="gray" d="M369,520.5L378,520.5"></path></g><path id="node_outline16" fill="rgb(238, 243, 246)" stroke="rgb(115, 161, 191)" d="M383.5,507.5h92a3,3,0,0,1,3,3v20a3,3,0,0,1,-3,3h-92a3,3,0,0,1,-3,-3v-20a3,3,0,0,1,3,-3z" stroke-width="1"></path><g id="node_text16" fill="black"><text id="kity_text_93" text-rendering="inherit" font-size="14" dy=".8em" y="511.40000009536743" x="400.5">链接阶段</text></g></g><g id="minder_node16"><g id="node_expander14" display="none" style="cursor: pointer;"><path id="kity_path_158" fill="white" stroke="gray" d="M518.5,520.5A6,6,0,1,1,506.5,520.5A6,6,0,1,1,518.5,520.5"></path><path id="kity_path_159" fill="none" stroke="gray"></path></g><path id="node_outline15" fill="none" stroke="none" d="M523.5,509.5h270a5,5,0,0,1,5,5v12a5,5,0,0,1,-5,5h-270a5,5,0,0,1,-5,-5v-12a5,5,0,0,1,5,-5z"></path><g id="node_text15" fill="black"><text id="kity_text_91" text-rendering="inherit" font-size="12" dy=".8em" y="512.7000000476837" x="528.5">可执行 object （链接器通过链接脚本填空生成）</text></g></g><g id="minder_node17"><g id="node_expander17" style="cursor: pointer;"><path id="kity_path_167" fill="white" stroke="gray" d="M379.5,586.5A6,6,0,1,1,367.5,586.5A6,6,0,1,1,379.5,586.5"></path><path id="kity_path_168" fill="none" stroke="gray" d="M369,586.5L378,586.5"></path></g><path id="node_outline18" fill="rgb(238, 243, 246)" stroke="rgb(115, 161, 191)" d="M383.5,573.5h133a3,3,0,0,1,3,3v20a3,3,0,0,1,-3,3h-133a3,3,0,0,1,-3,-3v-20a3,3,0,0,1,3,-3z" stroke-width="1"></path><g id="node_text18" fill="black"><text id="kity_text_97" text-rendering="inherit" font-size="14" dy=".8em" y="577.4000000953674" x="400.5">二进制文件阶段</text></g></g><g id="minder_node18"><g id="node_expander16" display="none" style="cursor: pointer;"><path id="kity_path_164" fill="white" stroke="gray" d="M559.5,586.5A6,6,0,1,1,547.5,586.5A6,6,0,1,1,559.5,586.5"></path><path id="kity_path_165" fill="none" stroke="gray"></path></g><path id="node_outline17" fill="none" stroke="none" d="M564.5,575.5h81a5,5,0,0,1,5,5v12a5,5,0,0,1,-5,5h-81a5,5,0,0,1,-5,-5v-12a5,5,0,0,1,5,-5z"></path><g id="node_text17" fill="black"><text id="kity_text_95" text-rendering="inherit" font-size="12" dy=".8em" y="578.7000000476837" x="569.5">bin 或是 hex</text></g></g></g></g></svg>